<svg width="174" height="20" viewBox="0 0 174 20" fill="none" xmlns="http://www.w3.org/2000/svg">
<path d="M0.85791 19V17.154C1.79391 17.1367 2.51324 17.0847 3.01591 16.998C3.51858 16.9113 3.88258 16.7293 4.10791 16.452C4.33324 16.1573 4.46324 15.698 4.49791 15.074C4.54991 14.4327 4.57591 13.5487 4.57591 12.422V1.11199H6.81191V11.72C6.81191 13.1067 6.78591 14.2593 6.73391 15.178C6.68191 16.0793 6.56058 16.79 6.36991 17.31C6.17924 17.8127 5.86724 18.1853 5.43391 18.428C5.01791 18.6707 4.43724 18.8267 3.69191 18.896C2.96391 18.9653 2.01924 19 0.85791 19Z" fill="white"/>
<path d="M10.1001 19V17.154C11.0361 17.1367 11.7554 17.0847 12.2581 16.998C12.7608 16.9113 13.1248 16.7293 13.3501 16.452C13.5754 16.1573 13.7054 15.698 13.7401 15.074C13.7921 14.4327 13.8181 13.5487 13.8181 12.422V1.11199H16.0541V11.72C16.0541 13.1067 16.0281 14.2593 15.9761 15.178C15.9241 16.0793 15.8028 16.79 15.6121 17.31C15.4214 17.8127 15.1094 18.1853 14.6761 18.428C14.2601 18.6707 13.6794 18.8267 12.9341 18.896C12.2061 18.9653 11.2614 19 10.1001 19Z" fill="white"/>
<path d="M27.7923 19.208C26.4056 19.208 25.253 19.1387 24.3343 19C23.433 18.844 22.7136 18.5753 22.1763 18.194C21.6563 17.8127 21.275 17.284 21.0323 16.608C20.7896 15.9147 20.6336 15.0393 20.5643 13.982C20.495 12.9073 20.4603 11.5987 20.4603 10.056C20.4603 8.51333 20.495 7.21333 20.5643 6.15599C20.6336 5.08133 20.7896 4.20599 21.0323 3.52999C21.275 2.83666 21.6563 2.29933 22.1763 1.91799C22.7136 1.53666 23.433 1.27666 24.3343 1.13799C25.253 0.981991 26.4056 0.903992 27.7923 0.903992C29.179 0.903992 30.323 0.981991 31.2243 1.13799C32.143 1.27666 32.8623 1.53666 33.3823 1.91799C33.9196 2.29933 34.3096 2.83666 34.5523 3.52999C34.795 4.20599 34.951 5.08133 35.0203 6.15599C35.0896 7.21333 35.1243 8.51333 35.1243 10.056C35.1243 11.5987 35.0896 12.9073 35.0203 13.982C34.951 15.0393 34.795 15.9147 34.5523 16.608C34.3096 17.284 33.9196 17.8127 33.3823 18.194C32.8623 18.5753 32.143 18.844 31.2243 19C30.323 19.1387 29.179 19.208 27.7923 19.208ZM27.7923 17.284C28.7456 17.284 29.5343 17.258 30.1583 17.206C30.7823 17.1367 31.2763 16.9893 31.6403 16.764C32.0043 16.5387 32.2816 16.1747 32.4723 15.672C32.663 15.152 32.7756 14.4413 32.8103 13.54C32.8623 12.6387 32.8883 11.4773 32.8883 10.056C32.8883 8.63466 32.8623 7.47333 32.8103 6.57199C32.7756 5.67066 32.663 4.96866 32.4723 4.46599C32.2816 3.94599 32.0043 3.57332 31.6403 3.34799C31.2763 3.12266 30.7823 2.98399 30.1583 2.93199C29.5343 2.86266 28.7456 2.82799 27.7923 2.82799C26.839 2.82799 26.0503 2.86266 25.4263 2.93199C24.8196 2.98399 24.3256 3.12266 23.9443 3.34799C23.5803 3.57332 23.303 3.94599 23.1123 4.46599C22.939 4.96866 22.8263 5.67066 22.7743 6.57199C22.7223 7.47333 22.6963 8.63466 22.6963 10.056C22.6963 11.4773 22.7223 12.6387 22.7743 13.54C22.8263 14.4413 22.939 15.152 23.1123 15.672C23.303 16.1747 23.5803 16.5387 23.9443 16.764C24.3256 16.9893 24.8196 17.1367 25.4263 17.206C26.0503 17.258 26.839 17.284 27.7923 17.284Z" fill="white"/>
<path d="M39.721 19V1.11199H42.009L51.291 14.814H51.395V1.11199H53.553V19H51.395L41.983 5.03799H41.879V19H39.721Z" fill="white"/>
<path d="M56.8666 19L63.6266 1.11199H66.4346L73.1686 19H70.8546L69.0086 14.112H60.9746L59.1286 19H56.8666ZM61.6506 12.162H68.3326L65.0566 3.39999H64.9266L61.6506 12.162Z" fill="white"/>
<path d="M82.6312 19V1.11199H88.2992C89.7725 1.11199 90.9772 1.18133 91.9132 1.31999C92.8492 1.45866 93.5858 1.70999 94.1232 2.07399C94.6778 2.43799 95.0852 2.95799 95.3452 3.63399C95.6052 4.30999 95.7698 5.16799 95.8392 6.20799C95.9085 7.24799 95.9432 8.53066 95.9432 10.056C95.9432 11.5813 95.9085 12.864 95.8392 13.904C95.7698 14.944 95.6052 15.802 95.3452 16.478C95.0852 17.154 94.6778 17.674 94.1232 18.038C93.5858 18.402 92.8492 18.6533 91.9132 18.792C90.9772 18.9307 89.7725 19 88.2992 19H82.6312ZM84.8672 17.076H87.9352C89.0272 17.076 89.9285 17.05 90.6392 16.998C91.3498 16.946 91.9132 16.816 92.3292 16.608C92.7452 16.3827 93.0485 16.0273 93.2392 15.542C93.4298 15.0393 93.5512 14.346 93.6032 13.462C93.6725 12.578 93.7072 11.4427 93.7072 10.056C93.7072 8.66933 93.6725 7.54266 93.6032 6.67599C93.5512 5.79199 93.4212 5.09866 93.2132 4.59599C93.0225 4.09333 92.7192 3.73799 92.3032 3.52999C91.8872 3.30466 91.3238 3.16599 90.6132 3.11399C89.9198 3.06199 89.0272 3.03599 87.9352 3.03599H84.8672V17.076Z" fill="white"/>
<path d="M123.949 19.208C123.308 19.208 122.606 19.1907 121.843 19.156C121.081 19.1213 120.335 19.078 119.607 19.026C118.897 18.974 118.247 18.9133 117.657 18.844V16.946C118.281 16.998 118.931 17.05 119.607 17.102C120.301 17.154 120.968 17.1973 121.609 17.232C122.268 17.2667 122.823 17.284 123.273 17.284C124.192 17.284 124.929 17.2493 125.483 17.18C126.038 17.0933 126.506 16.9373 126.887 16.712C127.147 16.556 127.338 16.348 127.459 16.088C127.581 15.828 127.65 15.5247 127.667 15.178C127.702 14.8313 127.719 14.4587 127.719 14.06C127.719 13.4707 127.702 12.994 127.667 12.63C127.633 12.266 127.537 11.9887 127.381 11.798C127.243 11.59 127.009 11.4427 126.679 11.356C126.35 11.252 125.908 11.174 125.353 11.122L120.907 10.628C120.075 10.524 119.408 10.3507 118.905 10.108C118.403 9.84799 118.021 9.52733 117.761 9.14599C117.519 8.74733 117.354 8.27932 117.267 7.74199C117.181 7.18732 117.137 6.57199 117.137 5.89599C117.137 4.80399 117.276 3.92866 117.553 3.26999C117.848 2.61133 118.273 2.10866 118.827 1.76199C119.382 1.41533 120.049 1.18999 120.829 1.08599C121.627 0.964658 122.537 0.903992 123.559 0.903992C124.218 0.903992 124.894 0.921324 125.587 0.955992C126.281 0.990658 126.931 1.04266 127.537 1.11199C128.161 1.16399 128.673 1.23332 129.071 1.31999V3.16599C128.621 3.09666 128.101 3.03599 127.511 2.98399C126.922 2.93199 126.315 2.89733 125.691 2.87999C125.085 2.84533 124.504 2.82799 123.949 2.82799C122.996 2.82799 122.225 2.87133 121.635 2.95799C121.046 3.04466 120.578 3.20066 120.231 3.42599C119.85 3.65132 119.607 3.97199 119.503 4.38799C119.417 4.78666 119.373 5.27199 119.373 5.84399C119.373 6.51999 119.417 7.04866 119.503 7.42999C119.607 7.79399 119.815 8.05399 120.127 8.20999C120.457 8.34866 120.942 8.45266 121.583 8.52199L125.925 9.01599C126.549 9.06799 127.095 9.15466 127.563 9.27599C128.049 9.37999 128.465 9.56199 128.811 9.82199C129.158 10.082 129.418 10.4547 129.591 10.94C129.695 11.1827 129.773 11.4513 129.825 11.746C129.877 12.0407 129.912 12.37 129.929 12.734C129.964 13.0807 129.981 13.4707 129.981 13.904C129.981 14.892 129.886 15.7153 129.695 16.374C129.505 17.0153 129.236 17.5267 128.889 17.908C128.543 18.2893 128.118 18.5753 127.615 18.766C127.113 18.9567 126.549 19.078 125.925 19.13C125.319 19.182 124.66 19.208 123.949 19.208Z" fill="white"/>
<path d="M134.321 19V1.11199H136.557V19H134.321Z" fill="white"/>
<path d="M148.729 19.208C147.464 19.208 146.389 19.1387 145.505 19C144.621 18.844 143.893 18.5753 143.321 18.194C142.766 17.8127 142.324 17.284 141.995 16.608C141.683 15.9147 141.458 15.0393 141.319 13.982C141.198 12.9073 141.137 11.5987 141.137 10.056C141.137 8.51333 141.198 7.21333 141.319 6.15599C141.458 5.08133 141.692 4.20599 142.021 3.52999C142.35 2.83666 142.801 2.29933 143.373 1.91799C143.945 1.53666 144.664 1.27666 145.531 1.13799C146.415 0.981991 147.481 0.903992 148.729 0.903992C149.318 0.903992 149.951 0.929991 150.627 0.981992C151.303 1.03399 151.962 1.09466 152.603 1.16399C153.262 1.23332 153.851 1.31999 154.371 1.42399V3.24399C153.816 3.15733 153.253 3.08799 152.681 3.03599C152.109 2.96666 151.572 2.91466 151.069 2.87999C150.584 2.84533 150.168 2.82799 149.821 2.82799C148.746 2.82799 147.828 2.85399 147.065 2.90599C146.32 2.95799 145.704 3.09666 145.219 3.32199C144.734 3.54732 144.361 3.91999 144.101 4.43999C143.841 4.94266 143.65 5.64466 143.529 6.54599C143.425 7.44733 143.373 8.61733 143.373 10.056C143.373 11.3213 143.408 12.3873 143.477 13.254C143.546 14.1033 143.685 14.7967 143.893 15.334C144.118 15.8713 144.422 16.2873 144.803 16.582C145.202 16.8767 145.722 17.076 146.363 17.18C147.021 17.2667 147.827 17.31 148.781 17.31C149.145 17.31 149.544 17.3013 149.977 17.284C150.41 17.2667 150.835 17.2407 151.251 17.206C151.667 17.1713 152.014 17.1367 152.291 17.102V11.278H148.235V9.37999H154.449V18.688C153.877 18.792 153.244 18.8873 152.551 18.974C151.875 19.0433 151.199 19.0953 150.523 19.13C149.864 19.182 149.266 19.208 148.729 19.208Z" fill="white"/>
<path d="M159.331 19V1.11199H161.619L170.901 14.814H171.005V1.11199H173.163V19H171.005L161.593 5.03799H161.489V19H159.331Z" fill="white"/>
<line x1="100" y1="2.65" x2="113" y2="2.65" stroke="white" stroke-width="1.7"/>
<line x1="100" y1="10.15" x2="113" y2="10.15" stroke="white" stroke-width="1.7"/>
<line x1="100" y1="17.15" x2="113" y2="17.15" stroke="white" stroke-width="1.7"/>
</svg>
