<svg width="36" height="36" viewBox="0 0 36 36" fill="none" xmlns="http://www.w3.org/2000/svg">
<path d="M0.764229 9.49811C1.43795 4.93291 4.91106 1.32759 9.47867 0.670397C12.0615 0.298773 15.0541 0 18 0C20.9459 0 23.9385 0.298773 26.5213 0.670397C31.0889 1.32759 34.562 4.93291 35.2358 9.49811C35.6496 12.3024 36 15.4342 36 18C36 20.4672 35.676 23.4579 35.2832 26.1773C34.5991 30.9127 30.9127 34.5991 26.1773 35.2832C23.4579 35.676 20.4672 36 18 36C15.5328 36 12.5421 35.676 9.82267 35.2832C5.08731 34.5991 1.4009 30.9127 0.716834 26.1773C0.323981 23.4579 0 20.4672 0 18C0 15.4342 0.350383 12.3024 0.764229 9.49811Z" fill="white"/>
<path d="M13.7633 11.525C12.5819 11.525 11.4589 11.525 10.6932 11.5839C10.5984 11.5839 10.4307 11.6429 10.4307 11.7313V24.6427C10.4307 24.7532 10.4817 24.7901 10.5765 24.7901H12.3923C12.5017 24.7901 12.5382 24.7385 12.5382 24.6427V20.0294C12.8591 20.0294 13.0122 20.0294 13.4643 20.0294C16.1553 20.0294 18.343 18.7176 18.343 15.6666C18.343 13.3526 17.0595 11.525 13.7633 11.525ZM13.5154 18.1575C13.1948 18.176 12.8734 18.176 12.5528 18.1575V13.4705C12.7643 13.4705 13.2164 13.4337 13.6904 13.4337C15.2729 13.4337 16.2136 14.2075 16.2136 15.733C16.2136 17.6417 14.901 18.1575 13.5154 18.1575ZM25.4605 22.0486C25.4605 23.9721 24.002 24.9964 22.033 24.9964C21.1893 25.0278 20.3507 24.8507 19.59 24.4806C19.5098 24.4437 19.4952 24.3848 19.4952 24.289V22.5055C19.4952 22.3876 19.5536 22.3508 19.6411 22.4097C20.3519 22.8822 21.1822 23.138 22.033 23.1467C22.981 23.1467 23.3748 22.7487 23.3748 22.2034C23.3748 21.658 23.0977 21.3854 21.9163 20.7295C20.2245 19.9115 19.5171 19.0787 19.5171 17.6932C19.5171 16.1383 20.7204 14.8486 22.806 14.8486C23.5336 14.8151 24.2603 14.9305 24.9427 15.1876C24.9814 15.2127 25.0126 15.2478 25.0331 15.2893C25.0537 15.3308 25.0627 15.3772 25.0594 15.4234V17.0742C25.0594 17.1774 25.0011 17.2363 24.8844 17.1995C24.2442 16.8366 23.5177 16.6581 22.7841 16.6836C21.8434 16.6836 21.5225 17.17 21.5225 17.568C21.5225 17.9659 21.7413 18.3049 22.981 18.9608C24.8771 19.8599 25.4605 20.7369 25.4605 22.0265V22.0486Z" fill="#358DDF"/>
</svg>
