<svg width="36" height="36" viewBox="0 0 36 36" fill="none" xmlns="http://www.w3.org/2000/svg">
<path d="M0.764229 9.49811C1.43795 4.93291 4.91106 1.32759 9.47867 0.670397C12.0615 0.298773 15.0541 0 18 0C20.9459 0 23.9385 0.298773 26.5213 0.670397C31.0889 1.32759 34.562 4.93291 35.2358 9.49811C35.6496 12.3024 36 15.4342 36 18C36 20.4672 35.676 23.4579 35.2832 26.1773C34.5991 30.9127 30.9127 34.5991 26.1773 35.2832C23.4579 35.676 20.4672 36 18 36C15.5328 36 12.5421 35.676 9.82267 35.2832C5.08731 34.5991 1.4009 30.9127 0.716834 26.1773C0.323981 23.4579 0 20.4672 0 18C0 15.4342 0.350383 12.3024 0.764229 9.49811Z" fill="white"/>
<path d="M15.347 27.7486C17.0344 27.7486 18.4038 26.3487 18.4038 24.6239V21.4991H15.347C13.6596 21.4991 12.2902 22.899 12.2902 24.6239C12.2902 26.3487 13.6596 27.7486 15.347 27.7486Z" fill="#0ACF83"/>
<path d="M12.2902 18.3743C12.2902 16.6494 13.6596 15.2495 15.347 15.2495H18.4038V21.499H15.347C13.6596 21.499 12.2902 20.0992 12.2902 18.3743Z" fill="#A259FF"/>
<path d="M12.2902 12.1248C12.2902 10.3999 13.6597 9 15.3471 9H18.4039V15.2495H15.3471C13.6597 15.2495 12.2902 13.8496 12.2902 12.1248Z" fill="#F24E1E"/>
<path d="M18.4039 9H21.4608C23.1481 9 24.5176 10.3999 24.5176 12.1248C24.5176 13.8496 23.1481 15.2495 21.4608 15.2495H18.4039V9Z" fill="#FF7262"/>
<path d="M24.5176 18.3743C24.5176 20.0992 23.1481 21.499 21.4608 21.499C19.7734 21.499 18.4039 20.0992 18.4039 18.3743C18.4039 16.6494 19.7734 15.2495 21.4608 15.2495C23.1481 15.2495 24.5176 16.6494 24.5176 18.3743Z" fill="#1ABCFE"/>
</svg>
