<svg width="36" height="36" viewBox="0 0 36 36" fill="none" xmlns="http://www.w3.org/2000/svg">
<path d="M0.764229 9.49811C1.43795 4.93291 4.91106 1.32759 9.47867 0.670397C12.0615 0.298773 15.0541 0 18 0C20.9459 0 23.9385 0.298773 26.5213 0.670397C31.0889 1.32759 34.562 4.93291 35.2358 9.49811C35.6496 12.3024 36 15.4342 36 18C36 20.4672 35.676 23.4579 35.2832 26.1773C34.5991 30.9127 30.9127 34.5991 26.1773 35.2832C23.4579 35.676 20.4672 36 18 36C15.5328 36 12.5421 35.676 9.82267 35.2832C5.08731 34.5991 1.4009 30.9127 0.716834 26.1773C0.323981 23.4579 0 20.4672 0 18C0 15.4342 0.350383 12.3024 0.764229 9.49811Z" fill="white"/>
<path d="M13.7806 20.2242L12.8324 23.7427C12.8324 23.8357 12.7736 23.8571 12.6487 23.8571H10.8847C10.7597 23.8571 10.7377 23.8214 10.7597 23.6784L14.1775 12.0431C14.2595 11.725 14.3015 11.3984 14.3024 11.0705C14.3024 10.9919 14.3024 10.9561 14.398 10.9561H16.9117C16.9999 10.9561 17.0366 10.9561 17.0587 11.0705L20.888 23.707C20.888 23.7999 20.888 23.8571 20.7925 23.8571H18.8006C18.7051 23.8571 18.6463 23.8571 18.6169 23.7499L17.6467 20.2242H13.7806ZM17.1248 18.3291C16.7867 17.0347 15.9929 14.1957 15.6916 12.8298C15.4417 14.1957 14.8022 16.5127 14.2951 18.3291H17.1248ZM22.5418 11.8214C22.5418 11.5047 22.6711 11.2009 22.9013 10.9769C23.1315 10.753 23.4437 10.6271 23.7692 10.6271C24.0948 10.6271 24.407 10.753 24.6372 10.9769C24.8674 11.2009 24.9967 11.5047 24.9967 11.8214C25.0091 11.9832 24.9852 12.1457 24.9265 12.2976C24.8678 12.4494 24.7758 12.587 24.6568 12.7007C24.5378 12.8144 24.3948 12.9015 24.2377 12.9559C24.0806 13.0103 23.9132 13.0307 23.7472 13.0157C23.5841 13.0266 23.4205 13.003 23.2676 12.9466C23.1148 12.8901 22.9764 12.8021 22.8618 12.6886C22.7473 12.5751 22.6593 12.4389 22.6041 12.2892C22.5489 12.1394 22.5276 11.9799 22.5418 11.8214ZM22.6888 14.4817C22.6888 14.3887 22.7255 14.3387 22.8284 14.3387H24.7174C24.8129 14.3387 24.8644 14.3744 24.8644 14.4817V23.7141C24.8644 23.8071 24.8644 23.8571 24.7174 23.8571H22.8578C22.7329 23.8571 22.6961 23.7999 22.6961 23.707V14.4817H22.6888Z" fill="#EC7119"/>
</svg>
