<svg width="36" height="36" viewBox="0 0 36 36" fill="none" xmlns="http://www.w3.org/2000/svg">
<path d="M0.764229 9.49811C1.43795 4.93291 4.91106 1.32759 9.47867 0.670397C12.0615 0.298773 15.0541 0 18 0C20.9459 0 23.9385 0.298773 26.5213 0.670397C31.0889 1.32759 34.562 4.93291 35.2358 9.49811C35.6496 12.3024 36 15.4342 36 18C36 20.4672 35.676 23.4579 35.2832 26.1773C34.5991 30.9127 30.9127 34.5991 26.1773 35.2832C23.4579 35.676 20.4672 36 18 36C15.5328 36 12.5421 35.676 9.82267 35.2832C5.08731 34.5991 1.4009 30.9127 0.716834 26.1773C0.323981 23.4579 0 20.4672 0 18C0 15.4342 0.350383 12.3024 0.764229 9.49811Z" fill="white"/>
<path d="M18.0921 23.2202C18.0412 23.0663 17.9904 22.8868 17.9395 22.7329C17.5327 21.3992 17.2277 19.5782 17.0497 17.6546C16.77 14.1152 17.0497 10.2937 18.1429 10.1911C18.7531 10.1398 19.2361 11.3196 19.5412 12.2942C19.948 13.6279 20.2531 15.4489 20.431 17.3725C20.7107 20.9119 20.431 24.7335 19.3378 24.836C18.8039 24.8617 18.3717 24.0666 18.0921 23.2202ZM19.1344 11.8838C18.7531 10.8066 18.3717 10.4219 18.1429 10.4475C17.4565 10.4988 16.948 13.474 17.3039 17.629C17.4565 19.5526 17.7615 21.3223 18.1683 22.656C18.6005 24.1179 19.0582 24.6052 19.3124 24.5796C19.9988 24.5283 20.5073 21.5531 20.1514 17.3981C19.9988 15.4745 19.6937 13.7048 19.287 12.3711C19.2361 12.1916 19.1853 12.0121 19.1344 11.8838Z" fill="#FD6D0B"/>
<path d="M14.6349 13.4996C14.3298 12.6532 14.1518 11.7556 14.584 11.4478C15.4739 10.8066 18.1179 13.5766 20.1264 16.5004C21.2196 18.0906 22.1094 19.6808 22.6433 20.9888C23.0247 21.9378 23.406 23.1689 22.8975 23.5023C22.0077 24.1435 19.3637 21.3735 17.3552 18.4497C16.2366 16.8852 15.3467 15.295 14.8129 13.9869C14.7366 13.8331 14.6857 13.6792 14.6349 13.4996ZM22.5925 21.5787C22.5416 21.4248 22.4908 21.271 22.4145 21.0914C21.8806 19.809 20.9908 18.2445 19.923 16.6543C17.5586 13.2175 15.2959 11.2683 14.7366 11.653C14.5332 11.8069 14.5078 12.4737 15.0671 13.8587C15.601 15.1411 16.4908 16.7056 17.5586 18.2958C19.923 21.7326 22.1857 23.6819 22.745 23.2971C22.923 23.1946 22.9738 22.6559 22.5925 21.5787Z" fill="#FD6D0B"/>
<path d="M14.533 19.0652L10.0584 20.6811L9.98218 23.6049L12.7025 22.6047L15.4482 21.6044L14.533 19.0652Z" fill="#FFBE22"/>
<path d="M13.6179 16.5005L10.8721 17.4751L8.15179 18.4754L10.0586 20.6811L14.5331 19.0653L13.6179 16.5005Z" fill="#F89920"/>
<path d="M26.7365 14.6282C27.3467 16.2953 24.2959 18.937 19.9485 20.5272C15.601 22.0917 11.5841 22.0148 10.9739 20.3477C11.8383 22.8099 16.0841 23.528 20.4315 21.9378C24.8044 20.3477 27.6264 17.0904 26.7365 14.6282Z" fill="#F0670B"/>
<path d="M19.9485 20.5272C24.2959 18.937 27.3467 16.3209 26.7365 14.6282L10.9739 20.3477C11.5841 22.0148 15.601 22.0917 19.9485 20.5272Z" fill="#F89920"/>
<path d="M17.787 14.4486C22.1344 12.8585 26.1514 12.9611 26.7615 14.6282C25.8971 12.166 21.6514 11.4478 17.304 13.038C12.9565 14.6282 10.1091 17.8855 10.9735 20.3477C10.3888 18.6549 13.4142 16.0132 17.787 14.4486Z" fill="#FFD00E"/>
<path d="M17.7873 14.4486C13.4399 16.0388 10.389 18.6549 10.9992 20.3477L26.7618 14.6282C26.1516 12.9354 22.1347 12.8585 17.7873 14.4486Z" fill="#FFBE22"/>
<path d="M18.1687 22.6303C17.8382 21.5274 17.5585 20.0911 17.3806 18.5266C19.389 21.4248 21.9822 24.1435 22.872 23.528L22.7195 23.3228C22.1602 23.7075 19.8975 21.7583 17.5331 18.3214C17.4568 18.2188 17.3806 18.1163 17.3043 18.0137C17.3043 17.8854 17.2789 17.7572 17.2789 17.6289C16.9484 13.474 17.4568 10.4988 18.1178 10.4475L18.0924 10.191C16.9992 10.2936 16.7195 14.0382 16.9992 17.5776C16.1348 16.2696 15.4484 14.9872 15.0162 13.91C14.4314 12.4994 14.4569 11.8325 14.6857 11.7043L14.5331 11.4991C14.1009 11.8069 14.3043 12.7045 14.584 13.5509C14.6348 13.7048 14.7111 13.8843 14.7619 14.0382C15.245 15.2437 16.0585 16.68 17.0246 18.1419C17.2026 19.9116 17.4823 21.5274 17.8636 22.7585C17.9145 22.9124 17.9653 23.092 18.0161 23.2458C18.3212 24.0922 18.7534 24.8873 19.2619 24.8617L19.2365 24.6052C19.0331 24.5795 18.6009 24.0922 18.1687 22.6303Z" fill="#FD6D0B"/>
</svg>
